<svg xmlns:xlink="http://www.w3.org/1999/xlink" xmlns="http://www.w3.org/2000/svg" width="266" height="268" viewBox="0 0 266 268" fill="none">
<g filter="url(#filter0_d_1855_1038)">
<rect x="8" width="250" height="250" rx="45" fill="url(#paint0_linear_1855_1038)" shape-rendering="crispEdges"/>
<rect x="12" y="4" width="242" height="242" rx="41" stroke="url(#paint1_linear_1855_1038)" stroke-width="8" shape-rendering="crispEdges"/>
</g>
<path d="M72.3513 104.249V66.2787L88.5301 50.027H183.568L199 66.2787V115.178L183.286 130.817H161.007L156.682 134.209V156.162H117.953V121.973L134.592 105.096H162.605V78.5276L158.751 75.1349H114.381L110.778 78.5276V104.249H72.3513Z" fill="#E5AE13"/>
<path d="M117.838 174.892H156.189V201.649H117.838V174.892Z" fill="#E5AE13"/>
<path d="M67 101.573V63.603L83.1778 47.3514H178.216L193.649 63.603V112.502L177.935 128.142H155.656L151.331 131.533V153.486H112.602V119.297L129.24 102.421H157.253V75.8519L153.399 72.4593H109.03L105.425 75.8519V101.573H67Z" fill="white"/>
<path d="M112.486 172.216H151.73V198.973H112.486V172.216Z" fill="white"/>
<path d="M57 35.5C57 42.9561 50.7322 49 43 49C38.1448 49 33.8689 46.617 31.3579 42.9982C30.3306 41.5176 29.5984 39.8301 29.2432 38.0135C29.0833 37.1994 29 36.3589 29 35.5C29 28.0439 35.2678 22 43 22C46.9535 22 50.5232 23.5795 53.0697 26.1206C55.2309 28.2784 56.6544 31.1291 56.9426 34.2947C56.9809 34.6912 57 35.093 57 35.5Z" fill="#E5AE13"/>
<path d="M57 213.5C57 220.956 50.7322 227 43 227C38.1448 227 33.8689 224.617 31.3579 220.998C30.3306 219.518 29.5984 217.83 29.2432 216.013C29.0833 215.199 29 214.359 29 213.5C29 206.044 35.2678 200 43 200C46.9535 200 50.5232 201.579 53.0697 204.121C55.2309 206.278 56.6544 209.129 56.9426 212.295C56.9809 212.691 57 213.093 57 213.5Z" fill="#E5AE13"/>
<path d="M235 33.5C235 40.9561 228.732 47 221 47C216.145 47 211.869 44.617 209.358 40.9982C208.331 39.5176 207.598 37.8301 207.243 36.0135C207.083 35.1994 207 34.3589 207 33.5C207 26.0439 213.268 20 221 20C224.954 20 228.523 21.5795 231.07 24.1206C233.231 26.2784 234.654 29.1291 234.943 32.2947C234.981 32.6912 235 33.093 235 33.5Z" fill="#E5AE13"/>
<path d="M235 213.5C235 220.956 228.732 227 221 227C216.145 227 211.869 224.617 209.358 220.998C208.331 219.518 207.598 217.83 207.243 216.013C207.083 215.199 207 214.359 207 213.5C207 206.044 213.268 200 221 200C224.954 200 228.523 201.579 231.07 204.121C233.231 206.278 234.654 209.129 234.943 212.295C234.981 212.691 235 213.093 235 213.5Z" fill="#E5AE13"/>
<path d="M57 35.3082C57 42.8702 50.6586 49 42.8355 49C37.9233 49 33.5971 46.5831 31.0567 42.913C31.0194 42.5108 31 42.1033 31 41.6918C31 34.1298 37.3414 28 45.1645 28C49.1645 28 52.7761 29.6019 55.3524 32.1791C55.9399 32.767 56.4734 33.4043 56.9419 34.0857C56.9806 34.4879 57 34.8953 57 35.3082Z" fill="#F4B925"/>
<path d="M57 213.308C57 220.87 50.6586 227 42.8355 227C37.9233 227 33.5971 224.583 31.0567 220.913C31.0194 220.511 31 220.103 31 219.692C31 212.13 37.3414 206 45.1645 206C49.1645 206 52.7761 207.602 55.3524 210.179C55.9399 210.767 56.4734 211.404 56.9419 212.086C56.9806 212.488 57 212.895 57 213.308Z" fill="#F4B925"/>
<path d="M235 33.3082C235 40.8702 228.659 47 220.836 47C215.923 47 211.597 44.5831 209.057 40.913C209.019 40.5108 209 40.1033 209 39.6918C209 32.1298 215.341 26 223.164 26C227.164 26 230.776 27.6019 233.352 30.1791C233.94 30.767 234.473 31.4043 234.942 32.0857C234.981 32.4879 235 32.8953 235 33.3082Z" fill="#F4B925"/>
<path d="M235 213.308C235 220.87 228.659 227 220.836 227C215.923 227 211.597 224.583 209.057 220.913C209.019 220.511 209 220.103 209 219.692C209 212.13 215.341 206 223.164 206C227.164 206 230.776 207.602 233.352 210.179C233.94 210.767 234.473 211.404 234.942 212.086C234.981 212.488 235 212.895 235 213.308Z" fill="#F4B925"/>
<defs>
<filter id="filter0_d_1855_1038" x="0" y="0" width="266" height="268" filterUnits="userSpaceOnUse" color-interpolation-filters="sRGB">
<feFlood flood-opacity="0" result="BackgroundImageFix"/>
<feColorMatrix in="SourceAlpha" type="matrix" values="0 0 0 0 0 0 0 0 0 0 0 0 0 0 0 0 0 0 127 0" result="hardAlpha"/>
<feMorphology radius="2" operator="erode" in="SourceAlpha" result="effect1_dropShadow_1855_1038"/>
<feOffset dy="10"/>
<feGaussianBlur stdDeviation="5"/>
<feComposite in2="hardAlpha" operator="out"/>
<feColorMatrix type="matrix" values="0 0 0 0 0 0 0 0 0 0 0 0 0 0 0 0 0 0 0.25 0"/>
<feBlend mode="normal" in2="BackgroundImageFix" result="effect1_dropShadow_1855_1038"/>
<feBlend mode="normal" in="SourceGraphic" in2="effect1_dropShadow_1855_1038" result="shape"/>
</filter>
<linearGradient id="paint0_linear_1855_1038" x1="63.5555" y1="28.2258" x2="189.385" y2="221.963" gradientUnits="userSpaceOnUse">
<stop stop-color="#FFDB61"/>
<stop offset="1" stop-color="#FECA1C" stop-opacity="0.827451"/>
</linearGradient>
<linearGradient id="paint1_linear_1855_1038" x1="8" y1="0" x2="254" y2="246.064" gradientUnits="userSpaceOnUse">
<stop stop-color="#E5AE13"/>
<stop offset="1" stop-color="#876C20"/>
</linearGradient>
</defs>
</svg>